This is the Shauna Sand-Lamas Sex Tape.

I got this viaLinks posted by user Darkwad on another torrent.
It was from the vivid.com website, and it was a .FLV file.

All I did was convert it to a AVI, so it can be recoded to DVD, or whatever you like. 

This is my first Movie upload. :D

Enjoy.


Format                           : AVI
Format/Info                      : Audio Video Interleave
File size                        : 704 MiB
Duration                         : 1h 13mn
Overall bit rate                 : 1 336 Kbps
Writing application              : Lavf51.12.1

Video
ID                               : 0
Format                           : MPEG-4 Visual
Codec ID                         : DIV3
Codec ID/Hint                    : DivX 3 Low
Duration                         : 1h 13mn
Bit rate                         : 1 195 Kbps
Width                            : 640 pixels
Height                           : 360 pixels
Display aspect ratio             : 16/9
Frame rate                       : 29.000 fps
Resolution                       : 24 bits
Bits/(Pixel*Frame)               : 0.179
Stream size                      : 630 MiB (89%)

Audio
ID                               : 1
Format                           : MPEG Audio
Format version                   : Version 1
Format profile                   : Layer 3
Codec ID                         : 55
Codec ID/Hint                    : MP3
Duration                         : 1h 13mn
Bit rate mode                    : Constant
Bit rate                         : 128 Kbps
Channel(s)                       : 2 channels
Sampling rate                    : 44.1 KHz
Resolution                       : 16 bits
Stream size                      : 67.5 MiB (10%)
Alignment                        : Aligned on interleaves
Interleave, duration             : 26 ms (0.76 video frame)
Writing library                  : LAME3.97

No Passwords
No RAR
No Bullshit !

SEED SEED SEED !!!
I will seed this until my Ratio Hits 2.0